<svg width="74" height="96" viewBox="0 0 74 96" fill="none" xmlns="http://www.w3.org/2000/svg">
<g filter="url(#filter0_d_1_1234)">
<path d="M7.05872 78.5235L20.3086 55.479L26.7719 63.9073L31.2962 62.8405L19.0159 85.885L15.5688 76.9232L7.05872 78.5235Z" fill="white"/>
<path d="M55.9647 85.885L42.3916 63.9073H47.9932L53.2716 55.479L67.3832 79.1637L58.9809 77.67L55.9647 85.885Z" fill="white"/>
<path d="M27.941 8.21372L35.6745 2.11328L46.0933 8.21372L57.4787 9.60505L60.2713 20.3076L68.0048 27.9064L62.9566 37.9667L63.4936 48.9903L53.8268 53.3784L46.0933 63.5458L37.0709 59.9069L25.3632 63.5458L18.3816 53.3784L8.82211 48.9903L10.5407 38.7159L5.81464 26.8361L13.3333 19.3443L16.3408 9.06992L27.941 8.21372Z" fill="#FFCC34"/>
<ellipse cx="36.9107" cy="32.519" rx="21.1447" ry="20.4775" fill="#00728F"/>
<path d="M33.6144 28.6294L35.7632 24.0197L36.5153 23.1621C37.5539 24.8059 39.674 28.1363 39.8459 28.3078C40.0178 28.4793 43.4988 29.5228 45.2179 30.0231L41.9947 33.6679L43.0691 40.8505L37.2674 37.7416L30.3912 40.8505L31.1433 33.3463L28.135 29.7015L33.6144 28.6294Z" fill="#FFCC34" stroke="black"/>
<path d="M68.6334 31.1214C69.8905 28.9195 69.4049 26.1343 67.4731 24.4963L61.652 19.565C61.3297 19.2905 61.1105 18.9068 61.0353 18.4822L59.7181 11.0274C59.2776 8.51455 57.1181 6.69211 54.5825 6.69211H46.9801C46.5675 6.69211 46.1657 6.54417 45.8584 6.28474L40.0374 1.24623C40.0331 1.24194 40.0266 1.23765 40.0223 1.23336C38.0777 -0.411121 35.252 -0.411121 33.3052 1.23336C33.3009 1.23765 33.2945 1.24194 33.2902 1.24623L27.4799 6.27188C27.1618 6.54203 26.76 6.68997 26.3474 6.68997H18.745C16.2116 6.68997 14.0521 8.51241 13.6116 11.0231L12.2901 18.4822C12.217 18.9046 12 19.2862 11.6777 19.5607L5.85444 24.4941C3.92483 26.1322 3.43705 28.9173 4.69409 31.1193L8.4953 37.7679C8.70803 38.141 8.78538 38.5784 8.71018 39.0008L7.39083 46.5607C6.95463 49.0692 8.35994 51.522 10.7365 52.3925L17.8791 55.0189C18.0209 55.0726 18.1541 55.1412 18.2787 55.2291L5.04221 78.3934C4.28798 79.7141 5.50634 81.2943 6.9804 80.8998L14.7118 78.8329L16.7832 86.5472C17.1786 88.0201 19.1726 88.2903 19.9376 86.9524L33.5996 63.0484L36.0643 62.1436C36.451 62 36.8808 62.0021 37.2654 62.1436L39.9149 63.117L54.5761 86.9996C55.3625 88.2817 57.3115 88.0051 57.7026 86.5472L59.774 78.8329L67.5053 80.8998C68.9987 81.3007 70.2257 79.6669 69.4156 78.3462L55.1734 55.1476C55.2615 55.0961 55.3539 55.0511 55.4485 55.0168L62.5889 52.3904C64.9676 51.5177 66.3772 49.0628 65.9367 46.5564L64.6174 38.9965C64.5443 38.5741 64.6195 38.1367 64.8322 37.7637L68.6334 31.1214ZM19.0222 81.6309L17.5868 76.2901C17.3419 75.3745 16.3985 74.8321 15.481 75.0765L10.0682 76.5238L20.3588 58.5159L22.6128 62.4567C23.8226 64.575 26.2959 65.5548 28.5994 64.8751L19.0222 81.6309ZM64.2349 76.4766L59.0026 75.0787C58.0851 74.8342 57.1417 75.3767 56.8968 76.2922L55.4163 81.8067L45.0806 64.9716C45.4545 65.0531 45.8284 65.0938 46.2023 65.0938C48.0244 65.0938 49.7628 64.129 50.7169 62.4609L53.0848 58.3186L64.2349 76.4766ZM61.8454 36.0677C61.2373 37.1312 61.0181 38.3833 61.2287 39.5904L62.5481 47.1503C62.7028 48.0229 62.2193 48.8741 61.4006 49.1743L54.2602 51.8007C53.1901 52.1931 52.2812 52.9349 51.6666 53.8955C51.5957 53.9877 51.5355 54.0842 51.4861 54.1871L47.7279 60.7607C47.2981 61.5154 46.3999 61.8477 45.5941 61.554C45.3685 61.4704 38.6321 58.994 38.4494 58.9276C37.2977 58.5052 36.0277 58.5052 34.8717 58.9276C34.7342 58.9769 31.6872 60.0982 27.7313 61.554C26.9255 61.8499 26.0273 61.5154 25.5954 60.7607L22.0585 54.5773C21.9768 54.2557 21.8028 53.9555 21.5471 53.724C20.9368 52.847 20.0687 52.1738 19.0652 51.805L11.9248 49.1786C11.1082 48.8805 10.6247 48.0272 10.7773 47.1524L12.0967 39.5947C12.3073 38.3876 12.0902 37.1376 11.4821 36.072L7.68091 29.4233C7.24041 28.6536 7.41016 27.6823 8.08058 27.1142L13.9038 22.1807C14.8364 21.3896 15.4681 20.2875 15.6787 19.0804L17.0002 11.6213C17.1528 10.7551 17.8877 10.1247 18.7493 10.1247H26.3517C27.5787 10.1247 28.7713 9.6852 29.7232 8.87904L35.5357 3.8491C36.191 3.30023 37.1387 3.30023 37.794 3.8491L43.6194 8.88976C44.5584 9.6852 45.751 10.1247 46.9801 10.1247H54.5804C55.442 10.1247 56.1769 10.7551 56.3295 11.6234L57.6488 19.0804C57.8616 20.2897 58.4933 21.3896 59.4259 22.1807L65.247 27.112C65.9195 27.6823 66.0871 28.6536 65.6466 29.4233L61.8454 36.0677Z" fill="#00485A"/>
<path d="M22.9125 18.8465C23.8622 18.8465 24.6315 18.0768 24.6315 17.1313C24.6315 16.1814 23.8622 15.416 22.9125 15.416C21.9648 15.416 21.1934 16.1814 21.1934 17.1313C21.1934 18.0789 21.9627 18.8465 22.9125 18.8465Z" fill="#00485A"/>
<path d="M36.6662 10.2471C33.7073 10.2471 30.8301 10.8152 28.1162 11.9387C27.2395 12.3011 26.8226 13.3045 27.1857 14.1793C27.5489 15.054 28.5567 15.47 29.4312 15.1076C31.7261 14.16 34.1586 13.6775 36.6641 13.6775C47.09 13.6775 55.5734 22.1422 55.5734 32.5452C55.5734 42.9481 47.0921 51.4128 36.6641 51.4128C26.2381 51.4128 17.7547 42.9481 17.7547 32.5452C17.7547 29.3184 18.5863 26.1323 20.1571 23.3343C20.6212 22.5067 20.3247 21.4626 19.4974 20.9995C18.6679 20.5364 17.6215 20.8322 17.1573 21.6577C15.2986 24.9681 14.3167 28.7331 14.3167 32.5473C14.3167 44.8413 24.3407 54.8454 36.6641 54.8454C48.9852 54.8454 59.0115 44.8434 59.0115 32.5473C59.0115 20.2491 48.9874 10.2471 36.6662 10.2471Z" fill="#00485A"/>
<path d="M29.9146 34.7575L28.909 40.6043C28.7972 41.2475 29.0637 41.8971 29.5923 42.2809C30.1144 42.6604 30.8171 42.7183 31.4016 42.4117L36.6639 39.6502L41.9285 42.4117C42.5065 42.714 43.2091 42.6647 43.7377 42.2809C44.2685 41.8971 44.5328 41.2475 44.4211 40.6043L43.4154 34.7575L47.6722 30.6173C48.1406 30.1606 48.3104 29.481 48.1084 28.8592C47.9043 28.2374 47.3671 27.785 46.7203 27.6907L40.8369 26.8373L38.2068 21.518C37.9167 20.9305 37.3193 20.5596 36.6639 20.5596C36.0086 20.5596 35.4112 20.9305 35.1233 21.518L32.4931 26.8373L26.6098 27.6907C25.9608 27.785 25.4236 28.2374 25.2216 28.8592C25.0197 29.4788 25.1873 30.1606 25.6557 30.6173L29.9146 34.7575ZM33.8813 30.1027C34.4421 30.0213 34.9256 29.6696 35.177 29.1636L36.6639 26.1534L38.153 29.1636C38.4023 29.6696 38.8858 30.0213 39.4466 30.1027L42.7772 30.5851L40.3663 32.9286C39.9623 33.3231 39.7775 33.8913 39.8721 34.4466L40.4415 37.757L37.4611 36.194C37.2119 36.0632 36.9368 35.9967 36.6618 35.9967C36.3867 35.9967 36.1139 36.0632 35.8624 36.194L32.8842 37.757L33.4536 34.4466C33.5503 33.8913 33.3656 33.3231 32.9594 32.9286L30.5485 30.5851L33.8813 30.1027Z" fill="#00485A"/>
</g>
<defs>
<filter id="filter0_d_1_1234" x="0" y="0" width="73.6733" height="95.8188" filterUnits="userSpaceOnUse" color-interpolation-filters="sRGB">
<feFlood flood-opacity="0" result="BackgroundImageFix"/>
<feColorMatrix in="SourceAlpha" type="matrix" values="0 0 0 0 0 0 0 0 0 0 0 0 0 0 0 0 0 0 127 0" result="hardAlpha"/>
<feOffset dy="4"/>
<feGaussianBlur stdDeviation="2"/>
<feComposite in2="hardAlpha" operator="out"/>
<feColorMatrix type="matrix" values="0 0 0 0 0 0 0 0 0 0 0 0 0 0 0 0 0 0 0.25 0"/>
<feBlend mode="normal" in2="BackgroundImageFix" result="effect1_dropShadow_1_1234"/>
<feBlend mode="normal" in="SourceGraphic" in2="effect1_dropShadow_1_1234" result="shape"/>
</filter>
</defs>
</svg>
