<svg width="113" height="113" viewBox="0 0 113 113" fill="none" xmlns="http://www.w3.org/2000/svg">
<path d="M41.7153 25.874L50.692 21.1217H61.7807L71.8134 25.874L77.0938 36.4348V50.6918L56.5004 41.1871L34.8508 50.1637V36.4348L41.7153 25.874Z" fill="#FFCC34"/>
<path d="M27.83 83.7644C28.5731 81.6177 30.4649 80.0747 32.7172 79.7783L46.4533 77.971C48.1427 77.7487 49.847 78.2552 51.1407 79.3641L52.4358 80.4742C54.7516 82.4592 58.1882 82.3909 60.4233 80.3154L61.7196 79.1117C63.0894 77.8398 64.9737 77.2789 66.8161 77.5947L79.1951 79.7169C81.1802 80.0572 82.8621 81.3707 83.6732 83.2142L88.1826 93.4628C88.9104 94.9184 87.852 96.631 86.2246 96.631H51.4538C49.9454 96.631 48.4924 96.0629 47.3841 95.0398L46.0335 93.7931C43.8541 91.7814 40.5317 91.6639 38.2156 93.5167L36.6794 94.7457C35.1968 95.9318 33.2404 96.3462 31.4043 95.863L30.5507 95.6383C27.1727 94.7494 25.2651 91.1741 26.4077 87.8732L27.83 83.7644Z" fill="#00728F"/>
<path d="M91.7043 98.4193L87.485 85.7596C86.0106 81.3399 82.2488 78.0774 77.6631 77.2427L65.4828 75.0264V74.0823C67.6025 72.8521 69.447 71.2063 70.9159 69.258H74.5957C77.6103 69.258 80.0635 66.8048 80.0635 63.7902V41.9193C80.0635 28.855 69.4342 18.2257 56.3699 18.2257C43.3057 18.2257 32.6764 28.855 32.6764 41.9193V54.6773C32.6764 58.1913 35.1751 61.1311 38.4886 61.8164C39.5111 67.0545 42.7844 71.487 47.257 74.0823V75.0264L35.0749 77.2427C30.4911 78.0774 26.7275 81.3399 25.2548 85.7596L24.5258 87.9485L18.3181 81.7408C17.6073 81.03 17.6073 79.8727 18.3181 79.1619L25.5173 71.9645L12.0047 58.4519L3.86868 66.5879C1.45922 68.9973 0.132385 72.2014 0.132385 75.6097C0.132385 79.0179 1.45922 82.2202 3.86868 84.6296L28.5009 109.262C30.9103 111.671 34.1144 113 37.5226 113C40.9309 113 44.1331 111.671 46.4861 109.316L55.3639 101.182L52.5954 98.4193H91.7043ZM76.4183 63.7902C76.4183 64.7963 75.6 65.6128 74.5957 65.6128H73.063C73.5915 64.4081 73.9925 63.1377 74.2513 61.8164C75.0313 61.6542 75.7494 61.3443 76.4183 60.9543V63.7902ZM74.5957 57.8158V51.5388C75.6802 52.1713 76.4183 53.3341 76.4183 54.6773C76.4183 56.0206 75.6802 57.1834 74.5957 57.8158ZM38.1441 57.8158C37.0597 57.1834 36.3215 56.0206 36.3215 54.6773C36.3215 53.3341 37.0597 52.1713 38.1441 51.5388V57.8158ZM38.1441 45.5644V47.6458C37.4953 47.8153 36.8865 48.0705 36.3215 48.4004V41.9193C36.3215 30.8653 45.316 21.8709 56.3699 21.8709C67.4239 21.8709 76.4183 30.8653 76.4183 41.9193V48.4004C75.8533 48.0705 75.2446 47.8135 74.5957 47.6458V45.5644H72.7732C67.3838 45.5644 62.317 43.4648 58.5042 39.6538L56.3699 37.5196L54.2357 39.6538C50.4229 43.4648 45.3561 45.5644 39.9667 45.5644H38.1441ZM41.7893 58.3225V49.1403C47.2625 48.7284 52.3657 46.4702 56.3699 42.6629C60.3741 46.4702 65.4774 48.7302 70.9506 49.1403V58.3225C70.9506 60.9798 70.2252 63.4658 68.9786 65.6128H56.3699V69.258H65.9822C63.4124 71.5198 60.0534 72.9031 56.3699 72.9031C48.3305 72.9031 41.7893 66.3619 41.7893 58.3225ZM61.8377 75.7081V75.7937L56.3699 81.2615L50.9022 75.7937V75.7081C52.63 76.2512 54.4653 76.5483 56.3699 76.5483C58.2745 76.5483 60.1099 76.2512 61.8377 75.7081ZM28.7104 86.9115C29.7621 83.7548 32.4504 81.4237 35.7256 80.8259L48.4654 78.5112L56.3699 86.4157L64.2726 78.513L77.0107 80.8277C80.2858 81.4255 82.9741 83.7548 84.0258 86.9133L86.6485 94.7741H48.9502L41.8513 87.6751L33.9631 94.8106C33.276 95.5013 32.0749 95.5013 31.386 94.8106L27.4055 90.83L28.7104 86.9115ZM12.0029 63.6061L20.3612 71.9645L18.3819 73.9438L10.0235 65.5855L12.0029 63.6061ZM43.9618 106.688C42.2413 108.405 39.9521 109.355 37.519 109.355C35.0858 109.355 32.7967 108.405 31.0743 106.685L6.44216 82.0543C4.72164 80.3338 3.7739 78.0446 3.7739 75.6115C3.7739 73.1765 4.72164 70.8874 6.44216 69.1668L7.44458 68.1644L15.8029 76.5228L15.7373 76.5884C13.6067 78.7208 13.6067 82.1892 15.7373 84.3216L28.807 97.3913C29.8404 98.4229 31.2129 98.9934 32.6746 98.9934C34.1363 98.9934 35.5087 98.4247 36.4746 97.4551L36.6113 97.333L45.008 105.73L43.9618 106.688ZM47.6981 103.262L39.3197 94.8835L41.7273 92.7073L50.0911 101.071L47.6981 103.262Z" fill="#00485A"/>
<path d="M107.402 0H81.886C78.8714 0 76.4182 2.45319 76.4182 5.46774V20.0484C76.4182 23.0629 78.8714 25.5161 81.886 25.5161H86.7541L84.8695 36.5081L102.457 25.5161H107.402C110.417 25.5161 112.87 23.0629 112.87 20.0484V5.46774C112.87 2.45319 110.417 0 107.402 0ZM109.225 20.0484C109.225 21.0526 108.406 21.871 107.402 21.871H101.411L89.8361 29.1048L91.0772 21.871H81.886C80.8817 21.871 80.0634 21.0526 80.0634 20.0484V5.46774C80.0634 4.4635 80.8817 3.64516 81.886 3.64516H107.402C108.406 3.64516 109.225 4.4635 109.225 5.46774V20.0484Z" fill="#00485A"/>
<path d="M105.579 7.29031H83.7085V10.9355H105.579V7.29031Z" fill="#00485A"/>
<path d="M98.2892 14.5805H83.7085V18.2257H98.2892V14.5805Z" fill="#00485A"/>
<path d="M105.579 14.5805H101.934V18.2257H105.579V14.5805Z" fill="#00485A"/>
<path d="M63.1941 56.6874C64.2666 56.6874 65.1359 55.818 65.1359 54.7456C65.1359 53.6731 64.2666 52.8037 63.1941 52.8037C62.1217 52.8037 61.2523 53.6731 61.2523 54.7456C61.2523 55.818 62.1217 56.6874 63.1941 56.6874Z" fill="#00485A"/>
<path d="M49.4652 56.6874C50.5376 56.6874 51.407 55.818 51.407 54.7456C51.407 53.6731 50.5376 52.8037 49.4652 52.8037C48.3928 52.8037 47.5234 53.6731 47.5234 54.7456C47.5234 55.818 48.3928 56.6874 49.4652 56.6874Z" fill="#00485A"/>
</svg>
