<svg width="96" height="106" viewBox="0 0 96 106" fill="none" xmlns="http://www.w3.org/2000/svg">
<rect x="36.976" y="58.9136" width="27" height="10" transform="rotate(119.428 36.976 58.9136)" fill="#00728F"/>
<path d="M36.0004 62.4848L52.5004 63L50.5004 74.5L53.0004 76.5L59.5004 72.5L82.5004 86L80.5004 91H76.0004L73.0004 95.5L67.5004 100.5L61.0004 99L57.5004 104.5L52.0004 101L51.5004 97L48.0004 94L46.0004 88L42.5004 87L39.0004 83L34.5004 84.5L25.5004 80.5L36.0004 62.4848Z" fill="#FFCC34"/>
<path d="M58.0004 3L67.5004 11L75.0004 19L59.5004 18.5L58.0004 3Z" fill="#00728F"/>
<path d="M64.3458 28.5295H13.584C12.7227 28.5295 12.0246 29.2277 12.0246 30.0889C12.0246 30.9502 12.7227 31.6483 13.584 31.6483H64.346C65.2072 31.6483 65.9053 30.9502 65.9053 30.0889C65.9053 29.2277 65.207 28.5295 64.3458 28.5295Z" fill="#00485A"/>
<path d="M13.584 20.8316H38.9647C39.826 20.8316 40.5241 20.1334 40.5241 19.2722C40.5241 18.4109 39.826 17.7128 38.9647 17.7128H13.584C12.7227 17.7128 12.0246 18.4109 12.0246 19.2722C12.0246 20.1337 12.7227 20.8316 13.584 20.8316Z" fill="#00485A"/>
<path d="M64.3458 38.1135H13.584C12.7227 38.1135 12.0246 38.8116 12.0246 39.6728C12.0246 40.5341 12.7227 41.2322 13.584 41.2322H64.346C65.2072 41.2322 65.9053 40.5341 65.9053 39.6728C65.9051 38.8116 65.207 38.1135 64.3458 38.1135Z" fill="#00485A"/>
<path d="M25.1471 95.1656H8.90198C6.23562 95.1656 4.06614 92.9964 4.06614 90.33V7.95435C4.06614 5.28799 6.23562 3.11851 8.90198 3.11851H55.7026C55.8538 3.11851 56.0026 3.13238 56.1498 3.15226V12.8773C56.1498 17.2635 59.7182 20.8317 64.1042 20.8317H73.829C73.8491 20.9791 73.8628 21.128 73.8628 21.2791V47.8331C73.8628 48.6944 74.5609 49.3925 75.4222 49.3925C76.2834 49.3925 76.9815 48.6944 76.9815 47.8331V21.2793C76.9815 19.5688 76.3153 17.9606 75.1058 16.7509L60.2306 1.8757C59.0211 0.666227 57.4131 0 55.7026 0H8.90198C4.51582 0 0.947632 3.56839 0.947632 7.95435V90.33C0.947632 94.716 4.51602 98.2841 8.90198 98.2841H25.1471C26.0084 98.2841 26.7065 97.586 26.7065 96.7248C26.7065 95.8635 26.0084 95.1656 25.1471 95.1656ZM71.6577 17.7132H64.1044C61.438 17.7132 59.2685 15.5437 59.2685 12.8773V5.32402L71.6577 17.7132Z" fill="#00485A"/>
<path d="M94.5733 76.3385L81.361 54.0371C80.3981 52.4111 78.3025 51.8736 76.6757 52.8373L73.4619 54.7414C70.9674 56.2192 69.913 59.2098 70.7695 61.86C69.6867 62.2523 68.4996 62.2461 67.4065 61.8235C64.8691 61.0252 62.94 59.4193 59.754 60.2251C54.3442 61.6024 54.5086 61.5335 54.0192 61.7012C50.8516 59.8977 48.9476 59.3611 45.585 60.6619L42.5876 61.8206C41.1998 62.3569 39.6707 62.2297 38.3883 61.4699L37.5704 60.9878C37.9695 58.5961 36.9089 56.0722 34.663 54.7418L31.4493 52.8378C29.827 51.8769 27.7252 52.4148 26.7642 54.0371L13.5514 76.3387C12.5885 77.9643 13.1243 80.0605 14.7508 81.0238L17.9643 82.9277C18.9367 83.5039 20.0054 83.7778 21.0613 83.7778C22.2387 83.7778 23.3995 83.4366 24.392 82.7939L25.0617 83.1892L23.6477 85.1587C21.9627 87.506 22.4981 90.77 24.8458 92.4553C25.9315 93.2345 27.2954 93.5904 28.7059 93.3689C28.9297 94.6771 29.6465 95.9015 30.8071 96.735C31.8971 97.5176 33.2548 97.8739 34.6678 97.6513C34.8922 98.9585 35.6085 100.182 36.7685 101.015C38.3275 102.134 40.2657 102.263 41.8808 101.573C42.2342 102.491 42.8484 103.32 43.7053 103.936C45.9429 105.542 49.0252 105.123 50.7638 103.042L54.5215 105.268C57.0065 106.741 60.2128 105.922 61.6862 103.434C62.063 102.798 62.2967 102.105 62.3822 101.393L62.3907 101.398C64.872 102.867 68.0855 102.045 69.5555 99.5641C69.9811 98.8455 70.2144 98.066 70.2712 97.2849C72.4582 97.8348 74.8418 96.9162 76.0488 94.879C76.4448 94.2107 76.6744 93.4888 76.75 92.7623C79.094 93.6821 81.8336 92.7931 83.1574 90.5589C83.8694 89.357 84.0708 87.9501 83.7245 86.5967C83.5263 85.8224 83.162 85.1195 82.6618 84.526L84.7329 83.3159C86.485 84.0351 88.4845 83.92 90.1602 82.9275L93.3734 81.0236C94.9998 80.0609 95.537 77.9651 94.5733 76.3385ZM19.5539 80.2448L16.3403 78.3407C16.1975 78.256 16.1501 78.0709 16.2346 77.9281L29.4473 55.6261C29.5324 55.4826 29.7181 55.436 29.8601 55.5205L33.0734 57.4241C34.5013 58.2703 34.9481 60.1017 34.1175 61.5035L23.6332 79.2005C22.7964 80.6133 20.9667 81.0814 19.5539 80.2448ZM26.6644 89.9218C25.7174 89.2419 25.5009 87.9248 26.1812 86.9774L28.2596 84.0823C28.9216 83.16 30.241 82.9076 31.2039 83.5989C32.149 84.2773 32.3658 85.598 31.6876 86.5431L29.609 89.4382C28.9305 90.3837 27.6091 90.5998 26.6644 89.9218ZM32.6258 94.2018C31.6807 93.5231 31.464 92.2021 32.1424 91.2572L34.2208 88.3623L36.5147 85.1669C36.8435 84.7092 37.3306 84.4065 37.8867 84.3154C38.0022 84.2964 38.118 84.2871 38.2329 84.2871C38.6705 84.2871 39.0964 84.4233 39.4591 84.6835C39.9167 85.0123 40.2193 85.4992 40.3104 86.0553C40.4017 86.6116 40.2711 87.17 39.9423 87.6277L35.57 93.7182C34.8906 94.6653 33.5732 94.8821 32.6258 94.2018ZM38.5873 98.4813C37.6426 97.8031 37.4257 96.4831 38.1029 95.5382L38.1037 95.5369L42.476 89.4467C43.154 88.5018 44.4757 88.2848 45.4204 88.9631C46.3655 89.6415 46.5822 90.9624 45.9038 91.9075L43.9612 94.6136L41.5315 97.9979C40.8531 98.943 39.5326 99.1602 38.5873 98.4813ZM45.5241 101.402C44.5796 100.724 44.3624 99.4045 45.0392 98.4594L46.4944 96.4325C47.1727 95.4872 48.4942 95.2711 49.4389 95.9491C50.3837 96.6274 50.6007 97.9484 49.9223 98.8935L48.4683 100.918C47.7901 101.864 46.4688 102.081 45.5241 101.402ZM80.4749 88.9695C79.8815 89.9709 78.5847 90.303 77.5831 89.7098C75.8871 88.7051 64.9467 82.2236 63.7803 81.5325C63.0391 81.0936 62.0829 81.3381 61.644 82.0791C61.2051 82.82 61.4496 83.7765 62.1905 84.2154L72.6255 90.3976C73.6273 90.9909 73.9617 92.284 73.3661 93.2898C72.7725 94.2916 71.475 94.6231 70.4738 94.0304C66.6144 91.7439 63.4805 89.8872 60.0333 87.8449C59.2919 87.406 58.3358 87.6505 57.8969 88.3914C57.458 89.1324 57.7025 90.0889 58.4435 90.5278L66.1322 95.0829L66.1338 95.0839C67.1363 95.6792 67.4671 96.9714 66.8727 97.9751C66.2792 98.977 64.9821 99.3088 63.9803 98.7155L59.854 96.2711L59.8525 96.2702L59.8513 96.2696L56.84 94.4854C56.0988 94.0463 55.1426 94.2908 54.7037 95.032C54.2647 95.7729 54.5093 96.7294 55.2502 97.1683L58.2621 98.9527L58.2633 98.9536C59.2652 99.5469 59.5993 100.84 59.0037 101.845C58.4101 102.847 57.1131 103.179 56.1113 102.586L52.5977 100.504C54.1039 98.1803 53.531 95.0483 51.2576 93.4165C50.5899 92.9374 49.8465 92.6391 49.0861 92.511C49.8927 90.3543 49.1972 87.8364 47.2389 86.4307C46.0796 85.598 44.6914 85.3104 43.3813 85.5158C43.1482 84.1525 42.4027 82.9583 41.2779 82.1511C39.1624 80.6329 36.2876 80.9247 34.5119 82.7211C34.151 82.0873 33.6529 81.5188 33.0227 81.0665C31.2648 79.8048 28.9825 79.793 27.2422 80.8557L26.5277 80.434L36.3348 63.88L36.8017 64.1553C38.8637 65.3768 41.3799 65.6315 43.7119 64.7296L46.7094 63.5709C48.4246 62.908 49.3705 62.8647 51.0672 63.6653C49.9571 64.9124 49.2981 66.5499 49.2981 68.3146V75.2284C49.2981 77.0648 50.791 78.5597 52.6259 78.561H52.6304C54.4709 78.561 56.2017 77.8444 57.5037 76.5433C58.2627 75.7847 58.823 74.8804 59.1588 73.8933C61.1721 75.0855 77.8065 84.9359 79.735 86.0785C80.22 86.3659 80.5641 86.8248 80.7039 87.371C80.8436 87.9165 80.7623 88.4844 80.4749 88.9695ZM91.7846 78.3407L88.5709 80.2448C87.1581 81.0812 85.3283 80.6127 84.4919 79.2007L79.5778 70.906C79.1387 70.165 78.1818 69.9205 77.4415 70.359C76.7005 70.7979 76.4558 71.7544 76.8945 72.4954L81.8086 80.7903C81.9011 80.9464 82.0015 81.0948 82.1055 81.2396L80.7393 82.0377C80.4631 82.2012 80.1975 82.3813 79.9435 82.577L58.7594 70.0319C57.7215 69.4177 56.4057 70.1665 56.4057 71.3735C56.3893 71.4666 56.5667 73.0695 55.2991 74.3367C54.5861 75.0491 53.6383 75.4416 52.6302 75.4416H52.6278C52.5112 75.4416 52.4164 75.3456 52.4164 75.2276V68.3138C52.4164 66.5076 53.659 64.9839 55.3394 64.5584L60.5185 63.2477C62.3978 62.7728 63.46 63.7763 66.2738 64.7286C68.2271 65.4843 70.3511 65.4377 72.2363 64.6325L73.1775 66.2213C73.6166 66.9627 74.5731 67.207 75.3138 66.7683C76.0548 66.3294 76.2995 65.3729 75.8608 64.6319L74.007 61.5031C73.1684 60.0874 73.6356 58.263 75.0511 57.4239L78.2646 55.5203C78.405 55.4368 78.5907 55.4795 78.6777 55.6261L91.89 77.9277C91.9753 78.0716 91.9283 78.2556 91.7846 78.3407Z" fill="#00485A"/>
</svg>
