<svg width="112" height="107" viewBox="0 0 112 107" fill="none" xmlns="http://www.w3.org/2000/svg">
<path d="M51.6401 74.5887C51.2334 74.1979 50.6691 73.9763 50.0938 73.9763C49.5184 73.9763 48.9541 74.1979 48.5472 74.5887C48.1403 74.9774 47.9062 75.5145 47.9062 76.0662C47.9062 76.6158 48.1401 77.155 48.5472 77.5437C48.9541 77.9324 49.5184 78.156 50.0938 78.156C50.6691 78.156 51.2334 77.9324 51.6401 77.5437C52.047 77.155 52.2812 76.6158 52.2812 76.0662C52.2812 75.5165 52.0472 74.9774 51.6401 74.5887Z" fill="#00485A"/>
<path d="M17.5 52L26.5 48.5L35 56L42 48.5L51.5 51.5L56 57V69H14V60L17.5 52Z" fill="#00728F"/>
<rect x="26" y="26" width="18" height="10" rx="2" fill="#FFCC34"/>
<path d="M71.041 2.00021H99.959C105.496 2.00021 110 6.25205 110 11.4782V31.7612C110 36.9873 105.496 41.2392 99.959 41.2392H79.9054L73.3311 47.445C72.947 47.8074 72.4335 48.0002 71.9107 48.0002C71.6521 48.0002 71.391 47.953 71.1426 47.8558C70.3923 47.5623 69.9029 46.871 69.9029 46.1044V41.1787C64.8999 40.6438 61 36.6243 61 31.7612V11.4782C61 6.25205 65.5044 2.00021 71.041 2.00021Z" fill="#FFCC34"/>
<path d="M98 56.0098C96.7921 56.0098 95.8125 56.9454 95.8125 58.0996V67.2905H58.1875V62.1322C58.1875 54.1853 51.9326 47.6124 43.8802 46.659C45.4716 44.7827 46.4277 42.3955 46.4277 39.7978V25.0957C46.4277 23.9415 45.4482 23.0059 44.2402 23.0059H32.7948C27.7097 23.0059 23.5727 26.9582 23.5727 31.8163V39.7978C23.5727 42.3953 24.5287 44.7825 26.1203 46.659C18.0674 47.6126 11.8125 54.1855 11.8125 62.1324V67.2907H4.375V17.0831C4.375 16.1895 5.14084 15.4626 6.08234 15.4626H51.5522C52.7601 15.4626 53.7397 14.527 53.7397 13.3728C53.7397 12.2186 52.7601 11.2829 51.5522 11.2829H6.08234C2.72869 11.2829 0 13.8848 0 17.0831V79.0453C0 82.2436 2.72869 84.8454 6.08234 84.8454H39.3706V94.4992C33.8522 95.0332 29.5312 99.4975 29.5312 104.908C29.5312 106.062 30.5108 106.998 31.7187 106.998H68.4687C69.6767 106.998 70.6562 106.062 70.6562 104.908C70.6562 99.4977 66.3353 95.0334 60.8171 94.4992V84.8454H94.1054C97.459 84.8454 100.188 82.2436 100.188 79.0453V58.0996C100.187 56.9456 99.2079 56.0098 98 56.0098ZM27.9475 31.8167C27.9475 29.2633 30.1219 27.186 32.7946 27.186H42.0525V30.5227C42.0525 32.1803 40.6409 33.5289 38.9056 33.5289H27.9475V31.8167ZM27.9475 37.7086H38.9058C40.0291 37.7086 41.0946 37.4705 42.0527 37.0469V39.7982C42.0527 43.5133 38.8887 46.5359 35 46.5359C31.1113 46.5359 27.9475 43.5133 27.9475 39.7982V37.7086ZM37.5526 50.7156L35 53.1542L32.4474 50.7156H37.5526ZM16.1875 62.1324C16.1875 56.4047 20.6259 51.6499 26.3891 50.8389L33.453 57.5874C33.8802 57.9955 34.44 58.1995 34.9998 58.1995C35.5596 58.1995 36.1193 57.9955 36.5466 57.5874L43.6104 50.8389C49.3741 51.6499 53.8125 56.4047 53.8125 62.1324V67.2907H16.1875V62.1324ZM65.907 102.818H34.2801C35.1835 100.378 37.6224 98.6252 40.4823 98.6252H41.5581H58.6296H59.705C62.5647 98.6252 65.0035 100.378 65.907 102.818ZM43.7456 94.4455V84.8454H56.4421V94.4455H43.7456ZM95.8125 79.0453C95.8125 79.9387 95.0466 80.6657 94.1051 80.6657H6.08234C5.14084 80.6657 4.375 79.9387 4.375 79.0453V71.4704H95.8125V79.0453Z" fill="#00485A"/>
<path d="M99.5463 48.7499C99.1397 48.3612 98.5753 48.1375 98 48.1375C97.4247 48.1375 96.8603 48.3612 96.4534 48.7499C96.0466 49.1407 95.8125 49.6778 95.8125 50.2274C95.8125 50.7791 96.0463 51.3162 96.4534 51.7049C96.8603 52.0957 97.4247 52.3172 98 52.3172C98.5753 52.3172 99.1397 52.0957 99.5463 51.7049C99.9532 51.3162 100.188 50.7791 100.188 50.2274C100.188 49.6778 99.9534 49.1386 99.5463 48.7499Z" fill="#00485A"/>
<path d="M98 9.82449H81.5938C80.3858 9.82449 79.4062 10.7601 79.4062 11.9143C79.4062 13.0686 80.3858 14.0042 81.5938 14.0042H98C99.2079 14.0042 100.188 13.0686 100.188 11.9143C100.188 10.7601 99.2079 9.82449 98 9.82449Z" fill="#00485A"/>
<path d="M74.1713 10.4368C73.7647 10.0481 73.2003 9.82449 72.625 9.82449C72.0497 9.82449 71.4853 10.0481 71.0784 10.4368C70.6716 10.8255 70.4375 11.3647 70.4375 11.9143C70.4375 12.464 70.6713 13.0031 71.0784 13.3919C71.4855 13.7806 72.0497 14.0042 72.625 14.0042C73.2003 14.0042 73.7647 13.7806 74.1713 13.3919C74.5782 13.0031 74.8125 12.464 74.8125 11.9143C74.8125 11.3647 74.5784 10.8255 74.1713 10.4368Z" fill="#00485A"/>
<path d="M98 19.0198H72.625C71.4171 19.0198 70.4375 19.9554 70.4375 21.1097C70.4375 22.2639 71.4171 23.1995 72.625 23.1995H98C99.2079 23.1995 100.188 22.2639 100.188 21.1097C100.188 19.9554 99.2079 19.0198 98 19.0198Z" fill="#00485A"/>
<path d="M98 28.2151H72.625C71.4171 28.2151 70.4375 29.1507 70.4375 30.305C70.4375 31.4592 71.4171 32.3948 72.625 32.3948H98C99.2079 32.3948 100.188 31.4592 100.188 30.305C100.188 29.1507 99.2079 28.2151 98 28.2151Z" fill="#00485A"/>
<path d="M101.062 0.00222778H69.5625C63.5316 0.00222778 58.625 4.68975 58.625 10.4514V32.8128C58.625 38.1743 62.8731 42.6056 68.3228 43.1953V48.6258C68.3228 49.4709 68.8559 50.2331 69.6732 50.5566C69.9438 50.6638 70.2282 50.7158 70.5099 50.7158C71.0793 50.7158 71.6387 50.5033 72.0571 50.1037L79.2183 43.262H101.062C107.093 43.262 112 38.5745 112 32.8128V10.4514C112 4.68975 107.093 0.00222778 101.062 0.00222778ZM107.625 32.8128C107.625 36.2698 104.681 39.0823 101.062 39.0823H78.3125C77.7324 39.0823 77.1761 39.3026 76.7657 39.6944L72.6978 43.5807V41.1721C72.6978 40.0179 71.7183 39.0823 70.5103 39.0823H69.5625C65.9439 39.0823 63 36.2698 63 32.8128V10.4514C63 6.99443 65.9439 4.18191 69.5625 4.18191H101.062C104.681 4.18191 107.625 6.99443 107.625 10.4514V32.8128Z" fill="#00485A"/>
</svg>
